<svg width="24" height="24" viewBox="0 0 24 24" fill="none" xmlns="http://www.w3.org/2000/svg">
<path fill-rule="evenodd" clip-rule="evenodd" d="M0.625 20.9375C0.625 21.584 0.881807 22.204 1.33893 22.6611C1.79605 23.1182 2.41603 23.375 3.0625 23.375H20.9375C21.584 23.375 22.204 23.1182 22.6611 22.6611C23.1182 22.204 23.375 21.584 23.375 20.9375V11.1875C23.375 10.972 23.2894 10.7653 23.137 10.613C22.9847 10.4606 22.778 10.375 22.5625 10.375C22.347 10.375 22.1403 10.4606 21.988 10.613C21.8356 10.7653 21.75 10.972 21.75 11.1875V20.9375C21.75 21.153 21.6644 21.3597 21.512 21.512C21.3597 21.6644 21.153 21.75 20.9375 21.75H3.0625C2.84701 21.75 2.64035 21.6644 2.48798 21.512C2.3356 21.3597 2.25 21.153 2.25 20.9375V3.0625C2.25 2.84701 2.3356 2.64035 2.48798 2.48798C2.64035 2.3356 2.84701 2.25 3.0625 2.25H13.625C13.8405 2.25 14.0472 2.1644 14.1995 2.01202C14.3519 1.85965 14.4375 1.65299 14.4375 1.4375C14.4375 1.22201 14.3519 1.01535 14.1995 0.862976C14.0472 0.710602 13.8405 0.625 13.625 0.625H3.0625C2.41603 0.625 1.79605 0.881807 1.33893 1.33893C0.881807 1.79605 0.625 2.41603 0.625 3.0625V20.9375Z" fill="#8E8E8E"/>
</svg>
