<svg width="29" height="29" viewBox="0 0 29 29" fill="none" xmlns="http://www.w3.org/2000/svg">
<path d="M27.1875 7.24998C27.1875 6.28857 26.8056 5.36654 26.1258 4.68672C25.4459 4.0069 24.5239 3.62498 23.5625 3.62498H22.6562V2.74422C22.6562 2.25654 22.2813 1.83797 21.7936 1.81361C21.6711 1.80771 21.5486 1.82674 21.4337 1.86956C21.3187 1.91239 21.2136 1.9781 21.1248 2.06273C21.036 2.14736 20.9653 2.24913 20.917 2.3619C20.8687 2.47466 20.8438 2.59605 20.8438 2.71873V3.62498H8.15625V2.74422C8.15625 2.25654 7.78129 1.83797 7.29361 1.81361C7.17108 1.80771 7.04862 1.82674 6.93366 1.86956C6.8187 1.91239 6.71364 1.9781 6.62482 2.06273C6.53601 2.14736 6.46531 2.24913 6.41699 2.3619C6.36868 2.47466 6.34376 2.59605 6.34375 2.71873V3.62498H5.4375C4.47609 3.62498 3.55406 4.0069 2.87424 4.68672C2.19442 5.36654 1.8125 6.28857 1.8125 7.24998V7.92967C1.8125 7.98975 1.83637 8.04738 1.87886 8.08987C1.92135 8.13236 1.97897 8.15623 2.03906 8.15623H26.9609C27.021 8.15623 27.0787 8.13236 27.1211 8.08987C27.1636 8.04738 27.1875 7.98975 27.1875 7.92967V7.24998ZM1.8125 23.5625C1.8125 24.5239 2.19442 25.4459 2.87424 26.1257C3.55406 26.8056 4.47609 27.1875 5.4375 27.1875H23.5625C24.5239 27.1875 25.4459 26.8056 26.1258 26.1257C26.8056 25.4459 27.1875 24.5239 27.1875 23.5625V10.1953C27.1875 10.1352 27.1636 10.0776 27.1211 10.0351C27.0787 9.9926 27.021 9.96873 26.9609 9.96873H2.03906C1.97897 9.96873 1.92135 9.9926 1.87886 10.0351C1.83637 10.0776 1.8125 10.1352 1.8125 10.1953V23.5625Z" fill="#6B6B6B"/>
</svg>
